<?xml version="1.0" encoding="UTF-8" standalone="no"?> <svg xmlns="http://www.w3.org/2000/svg" width="1052.000000pt" height="841.000000pt" viewBox="0 0 1052.000000 841.000000" preserveAspectRatio="xMidYMid meet"> <g transform="translate(0.000000,841.000000) scale(0.100000,-0.100000)" fill="#000000" stroke="none"> <path d="M5072 8256 c-47 -15 -82 -42 -82 -61 0 -7 27 -23 60 -35 33 -12 60 -28 60 -36 0 -7 -18 -23 -40 -35 -52 -29 -58 -48 -25 -75 48 -38 15 -75 -92 -103 -109 -29 -151 -186 -85 -317 27 -54 52 -174 52 -248 0 -62 -27 -182 -50 -226 -54 -103 -115 -137 -390 -215 -255 -73 -309 -90 -405 -128 -87 -34 -184 -87 -205 -112 -25 -30 -32 -16 -25 45 8 71 -8 83 -26 18 -17 -65 -65 -210 -79 -241 -7 -15 -11 -30 -8 -33 4 -3 27 4 53 16 87 39 195 61 290 58 107 -4 125 -22 33 -32 -161 -16 -330 -81 -413 -157 -80 -74 -119 -167 -199 -479 -147 -571 -209 -738 -321 -860 -62 -67 -69 -98 -30 -124 29 -19 105 -22 105 -3 0 6 -7 21 -15 31 -24 31 -18 60 23 112 44 59 48 64 110 179 103 187 142 305 162 480 37 330 106 493 255 595 91 62 276 94 550 95 242 0 325 -19 558 -127 153 -71 242 -92 346 -84 86 7 136 28 233 98 84 61 206 122 284 142 118 30 276 15 378 -36 41 -21 107 -70 160 -120 53 -51 72 -22 27 41 -60 84 9 65 169 -45 165 -114 323 -297 393 -456 34 -77 65 -179 137 -462 71 -281 106 -365 181 -437 37 -36 50 -55 46 -69 -6 -23 12 -26 44 -10 31 17 22 50 -36 139 -119 181 -189 381 -231 651 -3 25 -17 79 -29 120 -74 247 -198 433 -377 567 -227 170 -412 247 -618 260 -166 10 -286 -24 -426 -123 -263 -183 -553 -187 -822 -11 -81 53 -227 127 -252 127 -9 0 -20 4 -25 9 -6 5 -44 17 -85 27 -58 15 -112 19 -242 19 -189 0 -191 2 -63 65 123 60 242 90 363 90 110 0 180 -14 280 -55 48 -20 130 -48 182 -61 84 -22 111 -25 230 -21 156 4 213 21 289 85 75 64 106 75 209 80 77 4 107 0 170 -18 80 -24 180 -69 221 -101 31 -25 73 -24 96 1 17 19 17 21 0 40 -26 28 -12 35 37 19 30 -9 64 -35 111 -82 51 -51 72 -67 87 -62 32 10 178 -23 269 -61 47 -20 99 -38 114 -41 l29 -5 -35 68 c-19 38 -42 86 -52 107 -23 50 -43 48 -47 -5 -3 -38 -6 -43 -28 -45 -15 -2 -40 9 -62 25 -102 75 -132 94 -215 136 -192 96 -367 144 -558 153 -139 6 -194 -3 -328 -51 -189 -69 -360 -83 -459 -38 -24 11 -65 43 -93 71 -27 28 -64 56 -82 62 -18 6 -33 14 -33 18 0 13 93 50 141 57 32 4 72 0 125 -14 155 -39 254 -44 368 -18 37 9 81 16 98 16 l31 0 -52 55 c-65 69 -98 140 -112 241 -10 71 -9 90 11 179 28 123 35 210 21 262 -18 66 -67 129 -133 170 -75 47 -128 98 -128 124 0 22 -2 22 120 20 152 -3 297 -21 403 -51 82 -23 99 -25 104 -13 7 18 12 16 -92 50 -80 27 -182 50 -298 68 -35 6 -38 9 -33 30 8 30 -31 78 -87 107 -51 26 -139 32 -195 14z"></path> <path d="M4675 8059 c-55 -16 -114 -36 -132 -44 -17 -8 -34 -15 -38 -15 -4 0 -45 -18 -91 -40 -46 -22 -90 -40 -99 -40 -8 0 -15 -6 -15 -14 0 -8 -9 -18 -20 -21 -22 -7 -24 -13 -10 -35 8 -13 12 -13 32 -1 50 31 188 100 225 111 21 7 43 16 49 21 8 6 275 78 292 79 1 0 2 7 2 15 0 24 -82 17 -195 -16z"></path> <path d="M4143 7775 c-28 -31 -39 -52 -36 -65 7 -27 11 -25 47 13 17 19 46 44 64 56 36 25 34 41 -7 41 -20 0 -38 -12 -68 -45z"></path> <path d="M5755 6325 c-33 -14 -60 -25 -60 -25 -1 0 -1 -9 -1 -20 0 -12 5 -19 12 -16 42 16 145 28 207 24 93 -6 167 -39 227 -101 90 -94 125 -198 118 -351 -6 -138 -58 -232 -168 -301 -107 -68 -313 -74 -475 -15 -189 70 -261 144 -283 292 -7 49 -10 53 -32 50 -122 -16 -155 -9 -134 25 16 26 78 40 117 25 17 -6 33 -10 35 -7 3 3 9 28 13 56 5 32 21 72 42 103 19 28 32 56 30 62 -3 8 -24 5 -71 -7 -81 -23 -168 -24 -246 -4 -33 9 -61 13 -64 10 -3 -3 6 -18 20 -33 14 -15 39 -52 54 -82 27 -50 29 -64 29 -160 -1 -94 -3 -110 -27 -155 -38 -72 -63 -92 -183 -145 -125 -56 -269 -90 -379 -90 -70 0 -193 35 -258 73 -152 89 -208 248 -153 439 38 132 197 266 366 309 27 7 49 16 49 20 0 14 -90 19 -156 9 -79 -13 -185 -65 -236 -115 -46 -46 -104 -153 -119 -219 -6 -30 -10 -91 -7 -137 3 -71 10 -96 40 -159 20 -41 53 -94 72 -117 40 -46 43 -53 20 -53 -19 0 -61 28 -134 91 -49 41 -58 45 -73 34 -16 -12 -13 -17 38 -61 58 -51 172 -121 214 -133 26 -7 27 -9 60 -136 21 -77 82 -300 113 -410 31 -113 39 -147 34 -153 -3 -2 -38 20 -78 50 -262 195 -299 225 -303 243 -32 167 -45 244 -45 263 0 14 -6 22 -16 22 -18 0 -18 14 7 -222 l12 -108 66 -53 c36 -29 116 -92 176 -140 61 -47 167 -131 236 -187 l126 -100 6 -49 c8 -65 23 -87 77 -113 25 -12 54 -33 65 -47 46 -57 348 -448 416 -538 l40 -53 118 0 118 0 30 48 c17 26 61 97 98 157 191 309 238 381 253 387 9 4 34 7 55 7 42 1 103 28 128 57 24 28 49 102 57 170 l7 61 80 67 c80 68 188 161 209 181 6 5 34 29 62 53 29 23 54 52 57 65 4 12 15 114 27 227 11 113 23 212 25 221 3 10 -1 16 -10 16 -9 0 -17 -10 -20 -21 -2 -12 -9 -43 -14 -71 -11 -51 -49 -264 -58 -323 -4 -26 -20 -44 -87 -95 -44 -35 -120 -93 -168 -130 -48 -37 -92 -67 -99 -67 -6 0 -17 -7 -24 -16 -9 -14 -12 -4 -11 49 1 36 5 65 10 64 12 -3 22 38 31 127 5 57 10 76 20 72 9 -3 14 13 19 57 4 34 13 103 21 152 7 50 16 110 20 135 5 44 7 46 72 80 82 42 191 128 256 200 36 39 51 50 57 41 5 -9 12 4 19 38 12 56 14 91 6 91 -3 0 -37 -34 -77 -76 -86 -90 -258 -210 -258 -179 0 2 18 32 39 65 45 69 81 200 81 293 0 44 -7 67 -34 116 -56 98 -91 144 -158 206 -123 114 -259 145 -393 90z m-467 -307 c17 -17 15 -45 -4 -52 -24 -9 -107 -7 -123 3 -19 12 -7 39 21 51 33 13 92 12 106 -2z m12 -568 c74 -37 165 -124 172 -165 8 -38 -12 -86 -43 -107 -56 -36 -148 -61 -207 -55 -68 6 -166 47 -181 75 -28 52 -5 126 55 184 40 38 123 97 137 98 4 0 34 -13 67 -30z m-253 -7 c-3 -10 -15 -43 -27 -73 -14 -36 -23 -89 -27 -153 l-6 -98 -141 -190 c-78 -104 -159 -214 -180 -244 -22 -30 -42 -55 -46 -55 -7 0 -31 52 -85 185 -21 50 -43 104 -50 120 -8 17 -37 86 -65 155 -28 69 -57 139 -64 155 -31 69 -68 167 -64 170 2 2 32 -11 68 -28 60 -30 73 -32 185 -35 104 -3 136 0 225 22 58 14 139 39 180 55 90 35 104 37 97 14z m518 -26 c160 -49 358 -54 480 -11 65 22 65 22 44 -68 -10 -46 -28 -123 -39 -173 -11 -49 -31 -137 -44 -195 -13 -58 -32 -140 -42 -182 -10 -43 -21 -78 -25 -78 -6 0 -96 98 -155 170 -16 19 -43 51 -60 70 -18 19 -68 78 -113 130 -74 87 -81 99 -81 139 0 57 -17 114 -52 174 -33 56 -34 61 -10 54 9 -3 53 -16 97 -30z m-1148 -430 c17 -45 50 -129 73 -186 22 -57 38 -106 35 -110 -3 -3 -18 2 -32 11 -22 13 -34 43 -79 188 -30 95 -54 176 -54 181 0 5 6 6 13 3 6 -2 26 -42 44 -87z m1039 -50 c22 -42 38 -62 50 -62 24 0 20 29 -7 63 -22 29 -26 57 -5 45 7 -4 75 -90 150 -190 75 -101 142 -183 150 -183 8 0 23 8 35 18 20 17 20 17 -54 117 -70 95 -86 125 -66 125 5 0 56 -56 112 -125 57 -68 109 -124 115 -125 5 0 23 -14 39 -30 54 -56 35 -168 -33 -199 -47 -22 -83 -14 -124 30 -22 23 -43 38 -48 33 -7 -8 -209 -365 -318 -564 -20 -36 -41 -68 -46 -72 -6 -4 -50 -8 -98 -8 l-87 0 -63 78 c-35 43 -74 94 -88 112 -14 19 -37 48 -51 64 -14 17 -67 84 -117 150 l-93 119 23 16 c13 8 30 24 39 35 16 20 20 17 149 -99 213 -192 217 -195 242 -195 34 0 31 26 -4 41 -32 13 -50 60 -36 97 15 42 11 44 -56 37 -58 -6 -65 -5 -75 13 -18 33 -13 70 10 82 11 6 63 13 116 15 86 4 97 7 119 30 12 14 20 26 16 26 -4 1 -98 2 -210 4 -111 1 -205 5 -208 8 -3 3 -3 15 1 26 5 17 15 21 48 21 23 0 79 3 125 7 l82 6 0 51 c0 42 23 247 47 406 9 61 19 13 37 -165 30 -314 25 -286 50 -283 17 2 21 10 21 43 -1 48 -23 332 -32 393 -6 51 11 58 26 10 5 -18 37 -112 70 -208 34 -96 61 -186 61 -200 0 -24 3 -25 40 -22 45 5 45 5 26 35 -19 28 -126 389 -126 422 0 29 15 14 46 -48z m-500 -12 c-3 -13 -28 -71 -55 -129 -89 -187 -96 -206 -82 -225 6 -9 21 -35 32 -59 20 -42 20 -44 2 -80 -54 -110 -213 -78 -213 44 0 59 5 69 61 110 27 20 49 40 49 45 0 6 22 45 49 87 26 42 69 112 96 155 47 77 73 99 61 52z m118 3 c-6 -23 -69 -187 -121 -320 -14 -38 -29 -68 -33 -68 -9 0 -50 57 -50 69 0 10 59 115 152 274 40 66 66 89 52 45z m93 -40 c-4 -29 -11 -111 -17 -183 -15 -181 -12 -173 -66 -181 -24 -3 -47 -4 -50 -1 -6 5 2 34 70 267 46 156 43 150 57 150 8 0 10 -16 6 -52z"></path> <path d="M4516 6211 c-3 -5 -23 -12 -43 -17 -21 -4 -41 -8 -45 -9 -5 -2 -12 -3 -18 -4 -5 0 -10 -8 -10 -16 0 -12 9 -14 43 -10 23 3 70 6 104 6 35 1 60 5 57 10 -3 5 0 9 5 9 6 0 11 7 11 16 0 8 -4 12 -10 9 -5 -3 -10 -1 -10 4 0 13 -77 15 -84 2z"></path> <path d="M7305 6056 c-18 -19 -35 -49 -39 -66 -3 -18 -6 -206 -6 -417 0 -329 2 -390 16 -418 29 -61 46 -70 150 -73 l94 -4 0 -80 c0 -69 2 -79 16 -74 9 3 65 6 125 6 l110 0 -2 73 -2 72 99 6 c98 6 134 13 134 29 0 5 8 16 18 26 16 16 17 53 20 431 l3 413 -27 46 c-15 25 -38 50 -51 55 -13 5 -160 9 -325 9 l-301 0 -32 -34z m172 -145 c9 -12 12 -96 13 -317 l0 -301 -25 -13 c-21 -11 -29 -11 -50 0 l-25 13 0 294 c0 288 4 325 33 345 13 8 39 -2 54 -21z m228 7 c3 -13 4 -162 3 -333 l-3 -310 -27 -9 c-18 -7 -35 -6 -53 2 l-25 12 0 314 c0 173 3 321 6 330 4 11 19 16 50 16 37 0 44 -3 49 -22z m199 -3 c14 -21 16 -65 16 -325 l0 -300 -25 -12 c-19 -8 -31 -8 -50 0 l-25 12 0 303 c0 258 2 306 16 325 20 29 48 28 68 -3z"></path> <path d="M5040 5817 c0 -13 -11 -46 -25 -73 -39 -76 -31 -96 19 -49 24 22 31 36 27 58 0 4 4 7 9 7 6 0 10 18 10 40 0 33 -3 40 -20 40 -14 0 -20 -7 -20 -23z"></path> <path d="M7473 4913 c-10 -3 -13 -55 -13 -210 l0 -205 -62 4 c-42 4 -72 1 -90 -8 -15 -8 -34 -11 -42 -8 -9 3 -16 1 -16 -4 0 -6 -14 -26 -30 -44 -41 -44 -69 -124 -69 -192 2 -94 -11 -528 -17 -594 -4 -49 -3 -62 8 -60 19 4 22 -104 9 -367 -6 -121 -14 -355 -17 -520 -7 -289 -6 -301 13 -340 12 -22 29 -47 39 -56 49 -43 72 -47 327 -54 136 -4 247 -12 247 -16 0 -5 -9 -9 -21 -9 -12 0 -19 -5 -17 -12 6 -16 48 -19 45 -4 -1 6 13 12 32 14 25 3 31 6 20 13 -10 6 -4 9 21 9 36 0 69 18 108 58 13 12 27 20 31 17 5 -2 11 2 15 10 3 8 12 15 21 15 11 0 14 6 9 25 -3 14 -1 32 6 40 7 8 8 20 3 29 -9 16 -3 271 38 1501 6 176 8 339 5 363 -12 92 -97 168 -194 173 l-42 3 0 208 c0 160 -3 208 -12 208 -10 0 -12 -43 -10 -191 2 -130 0 -189 -8 -184 -5 3 -10 1 -10 -5 0 -7 -27 -10 -80 -8 -55 2 -80 7 -80 15 0 7 -7 10 -15 7 -8 -4 -12 -10 -9 -15 3 -5 -22 -9 -55 -9 -55 0 -61 2 -61 20 0 29 42 44 52 19 9 -24 20 -24 42 0 15 16 15 19 1 24 -8 4 -20 18 -27 32 -7 16 -19 25 -35 25 -21 0 -23 4 -21 48 1 37 2 40 5 14 3 -24 9 -32 18 -28 8 3 17 1 20 -4 4 -6 14 -6 26 0 27 15 14 32 -20 27 -19 -3 -28 0 -28 9 0 10 4 11 13 3 8 -7 14 -7 19 1 3 5 2 10 -2 10 -5 0 -7 19 -6 43 2 23 0 37 -3 30 -3 -7 -11 -10 -19 -7 -9 4 -15 -4 -18 -23 -2 -15 -5 -2 -6 29 0 31 -4 63 -7 72 -3 9 -1 16 5 16 6 0 11 -18 11 -42 0 -41 1 -41 15 -21 10 14 22 19 35 16 14 -4 22 1 29 18 4 13 6 30 4 37 -4 8 5 12 25 12 35 0 52 -16 25 -23 -11 -3 -8 -5 10 -6 15 0 27 4 27 9 0 6 7 10 15 10 9 0 12 -6 9 -15 -4 -8 -15 -15 -27 -15 -28 0 -95 -31 -101 -47 -7 -18 19 -17 34 2 16 19 29 19 50 0 9 -8 27 -16 40 -18 13 -2 25 -8 27 -14 2 -6 14 -8 27 -6 19 4 24 0 28 -21 3 -14 1 -23 -4 -20 -5 3 -17 -5 -28 -18 -11 -13 -20 -20 -21 -15 -1 4 -2 10 -3 15 -1 4 -10 18 -20 32 l-18 25 5 -24 c7 -27 -15 -50 -45 -51 -10 0 -18 -5 -18 -10 0 -12 53 -1 58 12 2 4 10 8 18 8 16 0 19 -37 5 -59 -6 -9 -2 -20 12 -34 19 -19 19 -20 2 -34 -11 -7 -32 -13 -48 -13 l-30 0 23 -20 c25 -22 64 -26 104 -10 19 7 25 16 24 35 -1 14 -9 25 -18 26 -10 0 -11 2 -2 6 6 2 10 9 6 14 -3 5 0 9 5 9 14 0 15 165 1 190 -8 15 -17 18 -45 13 -29 -5 -35 -2 -35 12 0 20 38 54 63 55 9 0 17 4 17 8 0 5 -53 10 -119 11 -97 2 -119 -1 -124 -13 -8 -20 -46 -16 -53 6 -6 19 -10 20 -31 11z m-73 -488 c12 -13 27 -22 32 -19 11 7 39 -16 33 -26 -3 -5 -1 -11 5 -15 6 -4 10 -64 10 -151 0 -79 3 -144 6 -144 3 0 39 22 80 49 122 82 217 98 290 48 60 -40 59 -37 56 -332 -2 -148 -6 -278 -9 -288 -5 -18 -18 -19 -256 -13 -139 4 -276 9 -304 12 l-53 5 0 119 c0 84 4 121 13 127 6 4 38 6 71 5 64 -4 75 14 20 31 -40 13 -64 36 -81 76 -19 46 -17 330 4 380 7 19 11 42 8 50 -3 9 -3 12 1 8 4 -4 13 1 20 11 7 9 20 17 30 17 9 0 19 6 21 13 3 7 -5 12 -21 12 -28 0 -41 14 -32 35 8 22 30 18 56 -10z m409 -951 l94 -6 -6 -205 c-7 -228 -11 -243 -83 -298 -54 -42 -113 -55 -240 -55 -158 0 -239 33 -281 114 -12 24 -15 68 -14 223 0 106 3 204 7 218 l6 25 212 -5 c116 -3 253 -8 305 -11z m-115 -638 c98 -3 182 -9 186 -13 12 -16 -5 -400 -19 -417 -9 -11 -10 -16 -2 -16 6 0 11 -11 11 -25 0 -23 -4 -25 -45 -25 l-45 0 0 125 0 125 -34 0 c-22 0 -36 -6 -40 -16 -3 -9 -6 -65 -6 -125 l0 -110 -77 3 -78 3 -3 123 -3 122 -49 0 -50 0 0 -52 c0 -29 -3 -83 -7 -120 l-6 -68 -83 0 c-57 0 -84 4 -87 13 -8 23 6 462 15 474 7 8 43 11 126 8 64 -3 198 -7 296 -9z"></path> <path d="M7633 3909 c-66 -50 -104 -72 -134 -77 -24 -4 -44 -13 -47 -20 -4 -12 50 -15 251 -17 l52 0 7 75 c11 135 0 138 -129 39z"></path> <path d="M7447 3273 c-4 -3 -7 -39 -7 -78 0 -80 16 -112 70 -140 47 -25 143 -20 189 10 22 13 42 32 45 42 13 39 14 158 3 165 -15 10 -291 10 -300 1z"></path> <path d="M6433 4902 c-21 -13 -35 -66 -28 -109 6 -44 3 -48 -36 -44 -35 3 -53 -37 -57 -126 l-3 -85 31 7 31 7 -5 -64 c-3 -34 -5 -66 -5 -69 -1 -3 -27 -3 -59 -1 -64 5 -112 -13 -135 -48 -6 -11 -17 -20 -24 -20 -19 0 -27 -50 -14 -84 7 -20 8 -32 1 -34 -24 -8 0 -102 26 -102 15 0 37 36 30 48 -3 5 5 8 17 8 20 -1 22 5 25 57 2 47 8 63 27 81 14 13 22 25 19 28 -2 3 7 3 21 1 14 -3 25 -9 25 -14 0 -5 20 -9 45 -9 36 0 47 5 62 26 10 14 26 34 36 45 20 22 23 49 5 49 -9 0 -9 3 0 12 7 7 12 33 12 59 0 38 -5 51 -22 63 -12 9 -30 16 -40 16 -11 0 -18 8 -18 20 0 11 -4 20 -10 20 -12 0 -1 30 18 50 8 8 28 13 44 11 15 -1 28 2 28 8 0 6 7 11 15 11 8 0 15 6 15 13 1 6 8 -4 16 -23 10 -23 13 -47 9 -70 -19 -101 -3 -150 36 -114 31 27 49 75 44 115 -6 42 -56 114 -78 113 -13 -1 -17 7 -17 35 0 76 -48 138 -87 113z m-226 -704 c-3 -8 -6 -5 -6 6 -1 11 2 17 5 13 3 -3 4 -12 1 -19z"></path> <path d="M7795 4841 c-3 -5 -1 -12 5 -16 5 -3 10 1 10 9 0 18 -6 21 -15 7z"></path> <path d="M3910 4751 c0 -5 7 -36 15 -68 17 -65 36 -86 68 -74 37 14 41 33 20 92 -18 53 -20 54 -61 57 -24 2 -42 -1 -42 -7z"></path> <path d="M4050 4699 c0 -18 21 -52 58 -93 34 -38 34 -39 28 -106 -6 -55 -4 -69 9 -80 47 -39 96 94 64 177 -20 54 -92 113 -139 113 -11 0 -20 -5 -20 -11z"></path> <path d="M3862 4687 c-25 -30 -42 -89 -42 -144 1 -70 34 -125 95 -160 41 -24 106 -45 113 -38 2 2 -2 19 -9 38 -8 22 -31 49 -61 71 -51 39 -55 47 -61 147 -5 78 -17 108 -35 86z"></path> <path d="M6993 4611 c-15 -10 -40 -21 -54 -24 -30 -8 -209 -173 -209 -193 0 -8 -4 -14 -10 -14 -5 0 -10 -5 -10 -11 0 -7 -7 -17 -16 -23 -8 -6 -16 -18 -17 -27 -2 -8 -12 -28 -23 -44 -27 -40 -72 -138 -76 -167 -2 -13 -6 -28 -10 -33 -4 -6 -5 -36 -4 -67 4 -97 51 -142 150 -145 33 -1 70 4 81 10 11 6 26 10 34 8 7 -1 10 2 6 8 -3 7 0 8 9 5 10 -4 16 -1 16 9 0 20 -25 28 -53 19 -12 -5 -31 -7 -42 -6 -11 1 -32 4 -47 5 -16 2 -28 6 -28 10 0 3 -10 10 -22 16 -22 9 -26 23 -33 101 -3 29 0 40 7 36 7 -5 9 -1 5 9 -3 10 -2 17 3 17 6 0 10 6 10 13 0 8 18 28 41 46 22 18 38 35 35 38 -3 3 6 14 19 25 14 11 22 25 18 33 -3 8 0 15 7 15 7 0 10 8 7 19 -5 20 16 35 66 45 36 8 105 79 152 155 20 34 39 60 43 59 15 -4 52 24 46 34 -4 7 -3 8 4 4 7 -4 12 -2 12 4 0 6 5 8 10 5 6 -3 10 1 10 9 0 22 -99 20 -137 -3z"></path> <path d="M2660 4601 c-310 -26 -655 -212 -826 -446 -50 -69 -58 -86 -42 -96 9 -7 27 6 60 43 26 29 48 56 48 60 0 4 44 43 97 87 88 74 167 120 348 202 22 10 99 33 185 54 191 48 460 59 646 25 266 -48 455 -144 629 -319 49 -50 93 -91 97 -91 14 0 -2 43 -28 79 -151 202 -371 326 -676 381 -128 23 -387 33 -538 21z"></path> <path d="M4035 4466 c-18 -13 -18 -17 18 -101 l37 -87 -29 -24 c-58 -49 -56 -130 6 -204 52 -61 147 -93 155 -52 3 12 12 5 36 -30 32 -47 39 -68 23 -68 -13 0 -31 -57 -31 -97 0 -61 31 -146 65 -180 27 -27 41 -33 74 -33 23 0 41 4 41 8 0 20 -44 96 -67 116 -18 16 -26 35 -30 69 l-6 47 30 -6 c31 -6 48 6 55 41 5 29 31 29 67 0 26 -23 31 -34 31 -72 0 -32 7 -53 26 -78 34 -46 51 -36 59 35 13 116 -52 195 -187 224 -16 4 -28 2 -28 -4 0 -22 -16 -8 -38 33 -27 51 -27 57 -3 57 12 0 25 13 35 35 22 46 13 92 -28 153 -41 60 -87 85 -144 79 l-44 -5 -29 67 c-27 59 -51 91 -69 91 -3 0 -15 -6 -25 -14z m241 -263 c27 -29 34 -45 34 -77 -1 -41 -1 -41 -18 -20 -39 47 -102 35 -102 -18 0 -33 2 -32 -39 -12 -42 21 -61 66 -52 119 7 38 7 39 19 18 17 -30 48 -29 68 2 23 35 51 31 90 -12z"></path> <path d="M6407 4312 c-10 -10 -17 -26 -17 -34 0 -22 -29 -90 -47 -110 -14 -15 -17 -15 -50 7 -45 31 -62 21 -86 -54 l-18 -56 -37 3 c-31 3 -43 -2 -66 -25 -67 -65 -87 -185 -43 -250 22 -33 51 -43 60 -20 3 6 2 -8 0 -33 -6 -48 -13 -63 -20 -42 -6 15 -67 16 -93 2 -11 -6 -31 -31 -46 -55 -23 -40 -26 -54 -22 -115 2 -47 9 -74 19 -82 9 -7 26 -27 38 -45 12 -17 31 -34 44 -36 12 -2 3 -5 -20 -6 -24 0 -43 -5 -43 -10 0 -5 -20 -29 -43 -53 -47 -47 -45 -38 -38 -176 0 -13 5 -21 9 -18 5 3 6 -8 4 -25 -4 -26 -1 -30 26 -35 27 -6 29 -9 22 -33 -5 -14 -11 -47 -15 -72 -5 -41 -9 -46 -26 -42 -14 4 -29 -4 -48 -23 -49 -51 -57 -80 -56 -194 2 -126 21 -185 57 -178 23 4 23 2 24 -93 l1 -97 -32 5 c-26 4 -36 0 -52 -21 -12 -14 -25 -26 -31 -26 -22 0 -33 -56 -25 -126 10 -81 7 -104 -13 -104 -18 0 -63 -46 -74 -75 -4 -12 -28 -34 -51 -50 -64 -41 -139 -125 -139 -152 0 -20 -4 -22 -24 -17 -17 4 -27 0 -34 -13 -10 -17 -11 -17 -17 2 -15 49 -40 85 -81 119 -36 30 -56 39 -98 43 -63 7 -116 -12 -116 -40 0 -10 -4 -15 -10 -12 -5 3 -10 16 -10 27 0 27 -44 67 -81 75 -27 5 -29 3 -29 -26 0 -38 -18 -40 -55 -8 -34 29 -44 71 -31 130 11 45 12 47 29 30 14 -15 21 -16 37 -5 43 26 120 -42 120 -107 0 -49 14 -69 37 -55 26 17 21 123 -10 177 -25 46 -110 109 -141 105 -17 -3 -24 8 -44 69 -23 71 -38 88 -67 77 -20 -8 -19 -39 5 -102 l20 -53 -20 -17 c-25 -21 -54 -150 -44 -196 12 -59 36 -97 78 -120 62 -36 86 -41 87 -19 0 14 2 15 6 3 6 -13 24 -30 72 -67 13 -9 14 -14 4 -24 -20 -20 -16 -32 22 -83 36 -47 97 -86 135 -86 11 0 20 -4 20 -10 0 -21 44 -9 71 20 39 41 39 70 -1 70 -16 0 -30 -4 -30 -10 0 -5 -13 -10 -28 -10 -36 0 -108 60 -114 95 -5 24 -4 24 12 10 28 -25 50 -19 50 14 0 22 -7 33 -27 43 -43 21 -41 38 4 31 71 -11 127 -54 142 -109 9 -34 37 -43 56 -17 13 17 14 17 8 -5 -3 -12 -9 -25 -14 -28 -5 -3 -9 -27 -9 -54 0 -58 14 -70 84 -70 43 0 47 -3 115 -78 63 -70 151 -190 151 -206 0 -4 -18 -23 -39 -44 -44 -42 -65 -100 -55 -153 9 -45 41 -108 68 -131 29 -26 96 -58 122 -58 12 0 24 -6 26 -12 18 -51 -5 -240 -43 -365 -21 -68 -89 -217 -126 -275 -31 -50 -30 -62 5 -53 44 10 129 66 199 129 152 139 232 326 233 544 0 149 -46 309 -122 420 -16 23 -27 46 -24 51 10 15 -37 93 -60 102 -12 4 -24 14 -27 21 -3 7 -6 3 -6 -9 -1 -28 -12 -29 -36 -3 -35 38 -182 109 -261 125 -30 6 -31 6 -26 60 4 50 3 55 -16 55 -12 0 -24 4 -27 10 -4 6 5 10 20 10 22 0 30 9 51 58 23 51 117 159 113 129 -4 -32 3 -58 19 -74 9 -10 15 -17 13 -15 -8 4 -40 -52 -35 -60 3 -5 2 -8 -3 -7 -13 3 -43 -12 -39 -20 2 -3 -13 -5 -35 -3 l-39 4 0 -40 c0 -33 4 -41 23 -46 33 -9 56 -7 70 4 7 6 33 24 59 41 27 17 56 44 65 60 10 16 24 29 31 29 11 0 13 9 9 36 -5 31 -2 39 33 70 21 19 47 55 57 79 l18 45 56 0 c51 0 57 2 63 23 3 12 19 38 36 57 21 23 30 44 30 67 0 18 -3 33 -7 33 -5 0 -9 11 -9 25 -1 14 2 25 7 25 5 0 9 14 9 30 0 20 -5 30 -15 30 -8 0 -15 3 -15 8 0 4 -16 24 -35 44 -31 33 -35 42 -35 93 0 53 2 58 48 105 92 94 102 113 102 187 0 75 -18 118 -60 144 -32 20 -40 32 -47 71 -6 25 -8 74 -6 107 4 54 2 61 -14 61 -26 0 -48 76 -37 128 4 20 7 40 6 44 -1 5 1 7 6 7 21 -4 32 2 26 14 -4 6 -4 9 1 5 4 -4 15 -2 23 5 13 10 14 9 3 -11 -14 -27 -8 -52 13 -52 24 0 76 34 76 49 0 8 2 12 5 9 3 -3 1 -35 -4 -71 -7 -47 -18 -79 -40 -110 -17 -25 -32 -58 -33 -75 -1 -22 -6 -28 -18 -24 -13 4 -13 2 1 -13 15 -15 22 -16 52 -6 63 21 113 80 131 154 4 16 2 27 -4 27 -5 0 -10 16 -10 35 0 19 4 35 10 35 14 0 -7 50 -32 77 -16 17 -24 20 -35 12 -11 -9 -13 1 -13 60 0 45 4 71 11 71 7 0 9 -16 4 -50 l-7 -50 31 0 c24 0 31 4 31 19 0 11 5 23 12 27 7 5 8 3 3 -7 -5 -8 0 -7 12 4 11 9 24 17 30 17 17 0 22 23 22 113 0 70 -3 90 -19 110 -11 14 -20 30 -20 36 0 6 -9 11 -21 11 -11 0 -18 -4 -15 -8 2 -4 -5 -8 -16 -8 -17 0 -19 5 -14 31 4 16 11 32 16 33 6 2 10 11 11 20 0 11 2 12 6 5 2 -7 11 -13 19 -13 22 0 93 69 115 111 37 74 17 169 -36 169 -30 0 -35 9 -21 40 10 23 16 25 68 24 47 -2 57 1 61 17 3 10 12 19 19 19 36 0 52 164 20 193 -24 22 -35 21 -55 -1z m-245 -364 c3 -28 7 -34 32 -36 32 -4 78 16 70 30 -3 4 0 8 5 8 14 0 14 -26 0 -53 -21 -39 -68 -87 -75 -76 -4 7 -25 8 -57 4 l-50 -7 6 54 c3 37 13 63 29 81 30 35 36 34 40 -5z m-51 -367 c7 2 31 0 51 -4 42 -9 54 -32 37 -71 -13 -27 -24 -30 -101 -26 -33 1 -38 -1 -39 -22 -1 -13 -5 -3 -10 22 -7 34 -5 55 7 88 14 37 18 41 28 27 7 -9 19 -15 27 -14z m-141 -521 c0 -5 -4 -10 -10 -10 -5 0 -10 5 -10 10 0 6 5 10 10 10 6 0 10 -4 10 -10z m-12 -325 c15 3 28 10 30 13 9 23 20 30 43 25 20 -4 25 -9 22 -24 -3 -10 -9 -19 -13 -19 -5 0 -12 -26 -15 -57 -13 -102 -84 -149 -118 -78 -21 44 -22 94 -2 142 8 19 16 52 17 72 1 20 3 11 5 -22 4 -58 4 -59 31 -52z m-22 -482 c36 6 33 10 49 -68 6 -29 -14 -107 -33 -128 -19 -22 -58 -45 -48 -29 3 5 3 24 0 41 -8 37 -36 42 -70 10 l-22 -21 3 63 c2 35 8 65 14 67 15 5 14 42 0 42 -7 0 0 9 15 21 14 11 26 28 26 37 1 11 6 7 16 -12 14 -25 20 -28 50 -23z m-86 -238 c0 -8 -7 -15 -15 -15 -9 0 -12 6 -9 15 4 8 10 15 15 15 5 0 9 -7 9 -15z m-54 -35 c31 0 30 -10 -1 -40 -25 -23 -25 -23 -39 -4 -8 10 -10 21 -5 22 5 2 10 16 10 30 1 17 3 21 6 10 3 -11 14 -18 29 -18z m82 -632 c-3 -7 -11 -13 -18 -13 -7 0 -15 6 -17 13 -3 7 4 12 17 12 13 0 20 -5 18 -12z m-11 -200 c21 -27 31 -97 20 -139 -18 -73 -93 -98 -142 -47 -15 15 -17 22 -7 25 10 4 9 9 -4 24 -9 10 -23 19 -31 19 -9 0 -13 16 -13 55 0 47 3 55 18 55 11 0 27 9 37 20 10 11 21 17 25 15 4 -3 13 2 20 10 11 13 16 12 40 -5 15 -10 31 -25 37 -32z"></path> <path d="M3485 4283 c-11 -3 -23 -11 -28 -18 -4 -8 -30 -21 -57 -30 -30 -10 -57 -27 -67 -41 -14 -23 -14 -25 8 -44 13 -10 27 -19 31 -20 4 0 14 -12 22 -28 12 -23 12 -33 0 -67 -15 -45 -18 -123 -5 -144 7 -11 21 -12 72 -3 35 5 84 10 109 11 42 2 70 14 70 31 0 5 -12 22 -26 39 -18 22 -24 38 -20 53 3 15 -3 33 -19 54 -31 40 -31 47 -2 63 64 34 110 -7 149 -133 25 -80 42 -106 71 -106 32 0 17 74 -39 185 -54 107 -93 159 -132 179 -31 16 -108 26 -137 19z"></path> <path d="M8570 4283 c0 -5 19 -29 43 -54 73 -81 96 -119 33 -56 -52 51 -76 67 -76 52 0 -3 27 -39 60 -80 55 -71 140 -227 140 -260 0 -8 5 -15 10 -15 6 0 10 -7 10 -15 0 -9 6 -12 15 -9 10 4 15 0 15 -14 0 -12 4 -23 9 -27 11 -6 11 -45 0 -45 -3 0 -7 -78 -7 -172 -3 -283 -36 -469 -134 -751 -22 -62 -28 -91 -20 -99 5 -5 15 -7 21 -3 17 10 74 130 104 215 59 174 83 308 93 541 6 124 4 153 -10 188 -12 31 -14 47 -6 61 8 15 6 35 -7 77 -9 32 -16 61 -15 66 1 4 -2 7 -8 7 -5 0 -10 10 -10 23 0 39 -40 138 -78 196 -61 92 -182 208 -182 174z"></path> <path d="M8128 4243 c-2 -16 -2 -95 0 -177 l3 -149 98 6 c146 9 182 34 126 87 -22 21 -25 32 -24 82 2 52 -1 62 -27 90 -27 29 -135 88 -161 88 -6 0 -13 -12 -15 -27z"></path> <path d="M2980 4179 c-41 -24 -150 -138 -150 -156 0 -16 8 -16 49 -2 42 15 81 4 81 -22 0 -11 11 -30 25 -42 29 -26 25 -34 -32 -71 -45 -28 -53 -45 -28 -66 30 -25 246 10 274 44 10 11 9 16 -3 23 -18 10 -96 123 -96 139 0 17 25 24 82 24 63 0 60 13 -15 63 -31 21 -57 42 -57 47 0 12 -54 40 -77 40 -10 0 -34 -9 -53 -21z"></path> <path d="M2516 4116 c-15 -14 -26 -32 -26 -41 0 -13 8 -15 49 -9 45 6 86 -5 101 -26 8 -12 70 1 69 14 0 17 -93 74 -132 81 -30 6 -40 3 -61 -19z"></path> <path d="M2054 4076 c-18 -8 -35 -19 -39 -26 -4 -6 -27 -20 -51 -30 -27 -12 -49 -30 -58 -49 -22 -41 -20 -44 14 -37 23 4 36 0 51 -15 21 -21 22 -21 -27 -94 -68 -105 -51 -150 48 -120 31 9 91 15 150 15 143 0 176 26 97 76 -34 21 -40 29 -35 49 5 21 0 29 -34 50 -48 30 -61 67 -34 96 16 17 27 20 61 15 61 -8 57 16 -9 54 -58 33 -87 36 -134 16z"></path> <path d="M2553 3998 c-4 -7 -10 -31 -13 -53 -4 -34 -9 -40 -32 -43 -41 -5 -50 -24 -43 -85 l7 -55 142 5 c77 3 152 10 166 17 53 24 20 70 -74 104 -27 9 -52 24 -56 32 -4 8 -15 32 -24 53 -12 28 -21 37 -40 37 -14 0 -28 -6 -33 -12z"></path> <path d="M3900 3818 c-198 -22 -467 -53 -690 -78 -338 -38 -436 -49 -525 -60 -49 -6 -171 -19 -270 -30 -99 -11 -211 -24 -250 -30 -38 -6 -119 -15 -178 -20 -93 -9 -110 -8 -123 5 -9 8 -21 15 -27 15 -22 0 -77 -39 -77 -55 0 -8 -3 -14 -7 -14 -5 1 -11 0 -15 -1 -5 -1 -14 -3 -20 -4 -7 0 -14 -11 -16 -24 -2 -12 -8 -20 -13 -16 -7 4 -8 -7 -4 -29 4 -20 2 -43 -3 -53 -7 -13 -6 -21 4 -29 15 -11 21 -88 10 -124 -6 -16 -5 -21 3 -17 6 4 11 2 11 -3 0 -6 5 -11 10 -11 6 0 10 15 10 33 0 32 14 66 24 57 5 -6 29 -187 47 -360 14 -136 27 -173 71 -200 40 -25 70 -24 408 15 124 14 308 34 410 45 102 11 199 22 215 25 34 6 401 49 600 70 72 8 225 25 340 39 117 13 215 20 220 15 13 -9 55 -8 55 2 0 4 11 10 24 13 31 8 96 68 96 90 0 12 -9 16 -34 16 -19 0 -38 5 -42 11 -4 7 -21 9 -40 6 -21 -4 -34 -2 -34 5 0 5 -7 8 -15 4 -8 -3 -15 -2 -15 3 0 5 -20 12 -45 15 -25 4 -58 18 -74 32 -46 39 -53 32 -49 -43 l3 -67 -175 -18 c-96 -10 -195 -16 -220 -12 -58 8 -126 43 -169 88 -54 55 -61 49 -54 -42 l6 -79 -39 -6 c-22 -4 -75 -10 -119 -13 l-80 -6 -1 88 c-1 49 -10 149 -19 222 -9 73 -18 172 -18 219 l-2 87 165 17 c91 10 195 21 232 25 80 8 119 -4 164 -53 18 -18 34 -33 38 -33 3 0 6 24 6 53 l0 53 103 12 c56 7 107 12 113 12 7 0 14 -33 19 -85 4 -47 11 -87 16 -91 5 -3 30 39 57 93 l47 98 60 8 c33 4 75 6 92 5 l33 -3 -56 -135 c-31 -74 -58 -144 -60 -155 -8 -36 161 -144 186 -119 12 12 -23 383 -42 447 -13 42 -57 82 -98 89 -14 2 -95 -4 -180 -14z m-978 -541 c66 -172 107 -292 102 -297 -5 -5 -38 -12 -74 -16 l-66 -6 -27 41 c-26 39 -30 41 -75 40 -26 -1 -76 -6 -112 -13 l-65 -11 -9 -46 -9 -46 -75 -7 c-41 -3 -77 -4 -80 -1 -5 5 37 293 64 435 7 41 16 99 20 128 4 29 12 56 18 59 13 9 207 31 249 29 28 -1 31 -8 139 -289z m-1181 230 c-10 -9 -11 -8 -5 6 3 10 9 15 12 12 3 -3 0 -11 -7 -18z m499 -27 c88 -45 140 -177 141 -359 0 -70 -4 -92 -26 -137 -32 -65 -53 -80 -126 -94 -54 -11 -341 -41 -346 -36 -14 13 -52 415 -40 419 5 1 2 27 -7 57 -20 66 -20 80 -2 80 9 0 12 7 9 18 -4 16 9 21 94 40 176 39 245 41 303 12z"></path> <path d="M2661 3323 c-20 -92 -31 -165 -24 -175 7 -12 122 -3 136 11 4 4 -10 48 -32 98 -23 50 -41 96 -41 102 0 6 -6 11 -14 11 -9 0 -18 -19 -25 -47z"></path> <path d="M2068 3351 c-26 -4 -49 -9 -51 -11 -6 -6 29 -285 37 -298 8 -13 105 -3 138 14 60 31 80 120 48 207 -31 82 -71 103 -172 88z"></path> <path d="M8135 3817 c-7 -32 -23 -351 -18 -359 7 -13 69 -9 144 8 l69 16 0 60 c0 67 -3 66 82 36 39 -13 58 -45 58 -95 0 -34 21 -24 36 18 21 57 17 132 -10 194 -28 62 -46 71 -46 22 0 -44 -27 -82 -46 -66 -8 6 -14 20 -14 30 0 53 -51 90 -185 137 -65 22 -65 22 -70 -1z"></path> <path d="M4412 3745 c-10 -22 -6 -36 32 -113 24 -48 49 -108 56 -134 10 -39 17 -48 35 -48 15 0 25 8 29 23 6 21 7 20 29 -13 18 -29 22 -49 22 -120 1 -88 6 -110 30 -110 24 0 45 44 56 114 14 86 -6 161 -57 211 -36 37 -64 45 -64 20 0 -30 -18 -14 -25 22 -7 40 -48 128 -73 156 -22 25 -57 22 -70 -8z"></path> <path d="M4384 3505 c-10 -15 -19 -54 -21 -93 -5 -79 15 -126 67 -156 l33 -20 19 24 c14 18 18 32 13 55 -3 16 -10 59 -15 95 -14 110 -19 120 -51 120 -20 0 -34 -8 -45 -25z"></path> <path d="M3330 3493 c-85 -6 -90 -9 -90 -53 0 -21 4 -41 9 -44 14 -9 172 12 187 25 31 26 3 81 -39 77 -12 -1 -42 -3 -67 -5z"></path> <path d="M3576 3318 c-32 -32 -38 -43 -29 -56 15 -24 78 -39 97 -22 17 13 22 80 7 80 -5 0 -11 9 -14 20 -7 28 -16 24 -61 -22z"></path> <path d="M4524 3305 c-22 -53 -19 -187 6 -233 27 -51 39 -64 82 -90 25 -16 45 -21 62 -16 14 3 26 8 26 10 0 3 -22 37 -50 76 l-50 71 0 109 0 108 -31 0 c-25 0 -32 -6 -45 -35z"></path> <path d="M4682 3219 c-32 -12 -25 -43 11 -47 18 -2 29 2 33 13 10 25 -16 45 -44 34z"></path> <path d="M7081 3174 c0 -11 3 -14 6 -6 3 7 2 16 -1 19 -3 4 -6 -2 -5 -13z"></path> <path d="M4672 3128 c-7 -7 -12 -26 -12 -44 0 -25 7 -36 39 -57 78 -52 103 -135 72 -244 -16 -58 -33 -55 -30 4 3 39 0 48 -14 51 -49 10 -97 -85 -97 -188 0 -44 31 -142 53 -168 8 -10 7 -16 -2 -21 -21 -13 -32 -82 -19 -121 20 -63 75 -120 118 -120 19 0 10 47 -15 76 -18 21 -25 41 -25 71 0 41 1 42 38 45 35 3 37 5 40 41 4 44 19 47 55 10 31 -34 57 -92 57 -131 0 -38 22 -67 45 -58 16 6 17 17 13 102 -5 85 -9 100 -34 136 -16 23 -46 50 -66 61 -41 20 -51 39 -18 30 22 -6 24 3 21 67 -4 80 -11 101 -32 95 -19 -7 -20 -6 -3 32 27 63 23 150 -12 219 -45 90 -135 149 -172 112z m163 -458 l0 -70 -32 0 c-34 0 -49 -22 -37 -55 13 -33 -15 -6 -36 35 -23 44 -25 73 -9 119 12 34 24 40 33 16 8 -21 40 -19 61 5 10 11 19 20 19 20 1 0 1 -32 1 -70z"></path> <path d="M4543 2963 c-3 -9 -1 -44 6 -77 22 -105 65 -155 89 -102 9 20 7 36 -8 80 -19 55 -57 116 -72 116 -5 0 -11 -7 -15 -17z"></path> <path d="M7112 2890 c0 -19 2 -27 5 -17 2 9 2 25 0 35 -3 9 -5 1 -5 -18z"></path> <path d="M3517 2852 c-35 -16 -38 -19 -32 -49 4 -20 2 -33 -5 -33 -22 0 -8 -32 33 -75 42 -43 46 -45 100 -45 62 0 79 7 145 58 49 38 72 78 72 122 l0 30 -94 0 c-51 0 -113 2 -137 5 -29 3 -57 -2 -82 -13z"></path> <path d="M3911 2838 c-7 -18 -21 -55 -32 -82 -23 -61 -42 -82 -93 -105 -37 -16 -90 -68 -181 -176 -35 -42 -153 -88 -212 -83 -31 3 -38 8 -45 33 -7 27 -1 86 17 158 11 43 -20 34 -76 -21 -74 -74 -80 -163 -13 -221 61 -54 140 -41 288 49 46 27 91 53 102 56 93 35 221 160 278 271 26 52 36 118 22 141 -14 23 -42 12 -55 -20z"></path> <path d="M8260 2838 c0 -11 39 -98 45 -98 14 0 2 49 -20 75 -13 17 -24 27 -25 23z"></path> <path d="M3035 2778 c-128 -17 -136 -19 -142 -35 -4 -10 19 -40 71 -91 l76 -77 80 0 79 0 51 50 c47 46 90 110 90 134 0 20 -203 33 -305 19z"></path> <path d="M2695 2735 c-68 -21 -130 -26 -220 -17 -82 7 -104 6 -122 -6 -13 -8 -23 -17 -23 -21 0 -4 20 -23 45 -41 25 -19 59 -55 76 -81 49 -76 76 -99 120 -99 53 0 87 34 132 132 25 54 43 81 61 90 14 6 26 19 26 30 0 15 -8 18 -42 17 -24 0 -47 -2 -53 -4z"></path> <path d="M2115 2673 c-115 -6 -122 -14 -85 -95 34 -76 94 -128 146 -128 68 0 126 126 92 197 -14 31 -30 33 -153 26z"></path> <path d="M7102 2500 c0 -14 2 -19 5 -12 2 6 2 18 0 25 -3 6 -5 1 -5 -13z"></path> <path d="M7102 2450 c0 -14 2 -19 5 -12 2 6 2 18 0 25 -3 6 -5 1 -5 -13z"></path> <path d="M7323 2233 c9 -2 23 -2 30 0 6 3 -1 5 -18 5 -16 0 -22 -2 -12 -5z"></path> <path d="M7517 2210 c-9 -6 -15 -15 -12 -21 3 -5 -1 -6 -10 -2 -13 5 -14 7 -3 14 10 7 9 9 -4 9 -12 0 -18 -8 -18 -24 0 -22 5 -25 43 -28 l42 -4 -42 -8 c-41 -8 -57 -29 -30 -39 10 -4 10 -6 0 -6 -7 -1 -13 -12 -13 -26 0 -19 5 -25 23 -26 21 -1 21 -1 2 -7 -19 -6 -21 -16 -22 -89 -1 -62 2 -83 13 -87 8 -3 14 -12 14 -21 0 -8 4 -15 9 -15 6 0 6 12 2 28 -7 23 -5 28 9 29 11 1 23 -9 29 -26 12 -27 12 -27 111 -26 54 0 100 2 103 5 2 3 8 16 12 29 5 16 4 21 -4 17 -6 -4 -11 -2 -11 3 0 6 5 11 10 11 6 0 10 31 10 73 0 50 -3 67 -10 57 -8 -12 -10 -9 -10 13 0 15 5 27 10 27 6 0 10 22 10 49 0 42 -3 50 -22 56 -13 4 -29 7 -35 6 -7 -1 -10 5 -7 13 7 19 -14 30 -31 16 -9 -7 -15 -8 -20 0 -3 5 -14 10 -23 9 -14 0 -14 -2 3 -10 16 -7 14 -8 -10 -3 -66 13 -101 14 -118 4z m40 -6 c-3 -3 -12 -4 -19 -1 -8 3 -5 6 6 6 11 1 17 -2 13 -5z m40 -10 c-3 -3 -12 -4 -19 -1 -8 3 -5 6 6 6 11 1 17 -2 13 -5z m53 -14 c0 -5 -2 -10 -4 -10 -3 0 -8 5 -11 10 -3 6 -1 10 4 10 6 0 11 -4 11 -10z m115 -30 c-3 -5 -11 -10 -16 -10 -6 0 -7 5 -4 10 3 6 11 10 16 10 6 0 7 -4 4 -10z m-125 -10 c0 -5 -4 -10 -10 -10 -5 0 -10 5 -10 10 0 6 5 10 10 10 6 0 10 -4 10 -10z m17 -36 c-3 -3 -12 -4 -19 -1 -8 3 -5 6 6 6 11 1 17 -2 13 -5z m-104 -182 c4 -21 3 -31 -3 -27 -6 3 -10 20 -10 37 0 38 5 34 13 -10z m-28 9 c-3 -6 -11 -8 -17 -5 -6 4 -5 9 3 15 16 10 23 4 14 -10z m-15 -21 c8 -5 11 -10 5 -10 -5 0 -17 5 -25 10 -8 5 -10 10 -5 10 6 0 17 -5 25 -10z m75 -40 c3 -5 2 -10 -4 -10 -5 0 -13 5 -16 10 -3 6 -2 10 4 10 5 0 13 -4 16 -10z"></path> <path d="M7520 1863 c0 -17 19 -37 27 -29 4 5 2 11 -5 13 -6 3 -10 9 -6 14 3 5 0 9 -5 9 -6 0 -11 -3 -11 -7z"></path> <path d="M4882 1303 c-139 -177 -192 -447 -129 -665 38 -129 94 -238 123 -238 20 0 17 23 -6 53 -11 14 -36 67 -56 117 l-35 92 11 92 c6 50 9 134 8 186 -2 78 0 101 15 123 9 14 17 36 17 47 0 25 30 86 77 157 31 48 36 73 13 73 -4 0 -22 -17 -38 -37z"></path> </g> </svg> 